<svg xmlns="http://www.w3.org/2000/svg" width="1024" height="1024" viewBox="0 0 1024 1024"><path fill="#643218" d="M244.035 636.514c1.507-13.196 7.096-34.656 12.015-46.132l1.927-4.494-2.554-5.04c-6.335-12.502-8.026-29.162-4.406-43.41 5.12-20.149 25.339-51.598 46.823-72.827l7.983-7.888-.544-9.119c-.627-10.51 1.655-21.592 6.641-32.246 19.48-41.629 88.462-87.783 153.972-103.021 9.453-2.199 14.021-2.701 24.608-2.702 11.91-.001 13.727.253 21.666 3.034 5.173 1.812 12.157 5.357 17.327 8.797l8.66 5.763 17.113-4.208c28.941-7.115 54.079-8.705 72.897-4.611 15.16 3.298 27.874 11.738 36.459 24.203 4.086 5.932 4.203 5.983 15.878 6.884 40.197 3.104 82.835 27.171 96.262 54.335 3.568 7.219 3.738 8.019 3.738 17.615 0 9.268-.254 10.589-3.251 16.916-4.131 8.721-14.831 19.6-25.249 25.667-6.431 3.745-34.414 17.322-57.25 27.775-4.913 2.249-6.75 3.612-6.75 5.008 0 3.124-6.681 15.543-11.002 20.452-2.204 2.504-7.043 6.803-10.753 9.553-7.507 5.565-28.324 17.756-41.354 24.218l-8.497 4.214-3.413 7.586c-6.039 13.419-18.253 24.084-45.381 39.625-21.163 12.124-43.484 22.12-55.969 25.064-7.776 1.834-16.271 1.835-24.916.003-3.732-.791-7.557-1.148-8.5-.794s-7.565 4.548-14.715 9.319c-16.027 10.695-28.481 17.884-38.415 22.173-7.171 3.096-8.239 3.274-19.585 3.274-9.724 0-12.634-.346-15.342-1.823l-3.342-1.824-9.158 6.895c-25.037 18.849-41.462 30.743-48.921 35.426-21.494 13.494-37.98 17.497-52.882 12.84-15.201-4.75-25.011-16.41-29.883-35.514-2.391-9.378-3.315-28.917-1.937-40.986M263 694l4 4c4.263 3.859 7.493 5.658 9.928 6.489 6.953 2.372 17.916 1.945 26.896-1.047 12.234-4.076 18.447-8.081 56.911-36.675l20.235-15.043-2.999-5.612c-7.019-13.132-24.793-32.893-39.358-43.757-20.57-15.344-42.016-24.329-54.86-22.987-6.114.639-13.092 3.575-16.003 6.733L266 588l-2 4c-5.975 18.41-8.478 27.845-11.448 43.156L252 638c.903 35.053 1.7 40.331 7.587 50.25zm341-223c-9.814-42.653-22.114-71.039-46.365-107-18.164-26.936-39.667-43.923-57.661-45.55L495 318c-15.953 0-30.361 2.71-50.5 9.499-29.728 10.021-61.319 26.837-84 44.712-5.972 4.707-29.655 27.969-29.564 29.039l.064.75c-6.404 8.138-9.555 13.538-11.132 17.25L317 426c-2.253 7.321-3.152 10.696-3.453 12.223L313 441c.043 9.21.423 9.553 7.816 7.062 22.095-7.443 53.599 4.961 88.881 34.993 20.55 17.492 43.543 47.4 56.766 73.84 11.259 22.512 15.949 37.122 17.187 53.537l.673 8.932 10.588.423c12.076.483 18.106-.737 31.985-6.474 17.541-7.251 44.605-22.152 59.722-32.883 17.159-12.18 22.931-25.101 24.115-53.983.612-14.932-.644-28.049-4.233-44.197zm-34-143-24 6 16 20a28703 28703 0 0 1 14.865 24.5c11.793 19.467 24.064 47.975 30.992 72 8.348 28.949 11.571 51.663 11.003 77.536l-.36 16.393 11.682-6.135c20.103-10.558 37.176-22.132 41.99-28.464 6.131-8.064 9.357-18.223 10.903-34.33.998-10.398.584-42.5-.548-42.5H682c-2.517-34.913-13.972-72.095-27.498-89.252-7.734-9.811-14.892-13.962-29.752-17.253L618 325c-21.312.012-32.112.687-37.75 1.508zm202 92c0-3.68-.652-6.596-1.448-8.853-3.194-9.052-13.904-21.518-26.052-30.324-6.515-4.723-22.961-12.874-32.707-16.211-6.49-2.222-28.611-6.999-31.043-6.703L680 358l-6-1c14.649 49.427 18.49 72.497 17.859 107.265l-.359 19.766 21.114-9.898c31.155-14.605 38.456-18.6 45.275-24.771 10.006-9.055 14.029-16.227 14.084-25.112zM258 558c1.627 9.295 2.813 13.683 3.685 15.747l1.586 3.753 6.114-2.976c5.673-2.761 6.909-2.972 17.115-2.937 9.537.033 11.998.41 18.5 2.836 16.535 6.17 35.089 17.602 50.695 31.237 11.75 10.265 26.871 29.367 31.642 39.97 2.238 4.973 6.141 7.056 14.908 7.954 7.77.796 15.87-1.106 25.623-6.018 6.407-3.227 31.286-18.712 42.382-26.38l4.75-3.282v-5.994c0-33.972-35.632-93.667-75.431-126.369-19.03-15.637-36.9-25.698-52.769-29.711-9.977-2.523-17.824-1.997-24.945 1.67L317 460c-6.312 2.967-25.108 22.213-34 34.813-17.453 24.732-25 41.907-25 56.897z"/><path fill="#fcc475" d="m329 422-12 4 2.868-6.75c1.577-3.712 4.728-9.112 11.132-17.25l.048 1.796c.026.988-1.999 4.848-4.5 8.578S322 419.627 322 420.203c0 .67 1.17.774 3.25.288 1.788-.418 6.068-1.269 9.512-1.892l6.263-1.133 6.409-8.54c10.403-13.861 30.042-31.451 48.066-43.049 20.504-13.194 50.447-25.132 76.5-30.501 22.497-4.636 41.931-2.394 59.253 6.839 3.18 1.695 6.08 2.786 6.444 2.422s-2.414-3.647-6.172-7.295c-7.89-7.66-19.831-14.285-29.416-16.319-3.392-.72-6.379-1.694-7.109-3.023l4.974.45c17.994 1.627 39.497 18.614 57.661 45.55 24.251 35.961 36.551 64.347 46.365 107l.063 17.25c.072 19.913-.663 24.127-6.236 35.75-3.386 7.062-5.619 10.028-13.201 17.53-15.207 15.048-34.065 26.6-54.936 33.654-7.856 2.655-10.714 3.118-19.69 3.187-6.548.05-11.347-.381-15-2.371l-1.626-4.75c-.894-2.612-2.245-5.312-4.374-7.25l-.793-.75c-1.654-1.564-9.705-18.984-11.207-24.25l-4.142-7.75c-13.154-24.613-39.014-56.049-63.358-77.019-17.506-15.08-31.056-23.534-47-29.325-8.496-3.086-9.686-3.258-33.5-2.906m160.343 68.566c-2.07 2.07-2.448 3.182-1.952 5.75 1.176 6.09 7.608 8.685 11.609 4.684 2.859-2.859 2.513-6.641-.923-10.077-3.592-3.592-5.424-3.667-8.734-.357m29.575 1.984c-.568.351-.894 1.608-.725 2.794.709 4.976 14.127 7.496 21.439 4.026 7.158-3.397 13.344-14.014 10.651-18.283-1.956-3.101-4.608-1.771-7.774 3.897-4.033 7.22-6.155 8.265-15.283 7.521-4.001-.326-7.74-.306-8.308.045M559 456c-5.774 5.774 1.833 15.961 8.606 11.523 3.513-2.302 3.381-8.601-.241-11.45-3.313-2.606-5.81-2.628-8.365-.073M358 583l1.75.642c3.931 1.443-15.87-16.076-23.762-21.024-16.842-10.559-31.251-15.49-47.738-16.337-9.657-.496-11.25-.816-11.25-2.264 0-2.971 4.059-14.3 7.702-21.499C294.283 503.585 303.153 492.655 333 463l7.25 2.614c41.86 15.092 81.584 57.1 99.491 105.209 3.107 8.347 3.612 10.914 3.68 18.677.065 7.421-.302 9.711-2.09 13.051-6.027 11.257-24.518 23.68-35.249 23.68-2.604 0-6.163-.727-11.082-3.231l-2.661-4.25c-5.667-9.049-14.954-19.156-27.339-29.75z"/><path fill="#fcc475" d="m546 334 24-6-1.122 1.5c-.617.825-2.552 1.5-4.3 1.5s-3.606.415-4.128.922-2.525 1.32-4.45 1.807c-2.705.685-3.569 1.46-3.801 3.414-.56 4.713 1.698 5.269 12.013 2.955 12.372-2.775 24.826-4.083 38.788-4.075 17.444.01 26.34 2.694 37.291 11.249 2.847 2.224 4.478 2.824 6.547 2.41 4.216-.843 4.368-.667 10.615 12.318 5.898 12.261 11.354 16.914 7.621 6.5-4.208-11.74-8.059-18.028-16.303-26.62-8.089-8.431-8.446-8.668-16.271-10.812-4.4-1.206-9.463-3.065-14.5-6.068l6.75 1.495c14.86 3.291 22.018 7.442 29.752 17.253C668.028 360.905 679.483 398.087 682 433l-.463 8.25c-.805 14.335-6.183 31.052-10.537 32.75l-3 7-1.243 2.202c-.684 1.211-4.621 5.668-8.75 9.904-6.522 6.692-8.286 7.928-13.447 9.424-11.858 3.437-15.077-.852-19.079-25.421-4.197-25.763-15.776-55.684-31.972-82.616C585.78 381.64 569.742 361.03 562 354zm102.317 18c-1.984 0-1.636 1.803 2.034 10.53 9.962 23.693 16.037 49.054 18.264 76.251.674 8.23 1.765 10.734 3.531 8.097 1.069-1.596.359-14.329-1.73-31.033-1.463-11.7-6.45-31.829-10.296-41.557-3.881-9.816-10.486-22.288-11.803-22.288"/><path fill="#dc9457" d="m317 426 12-4-.96 1.16c-1.859 2.246.172 2.84 9.769 2.855 26.196.042 50.907 13.532 82.26 44.906 17.395 17.406 28.351 30.893 43.117 53.079C473.851 540.023 477 543.443 477 539c1.502 5.266 9.553 22.686 11.207 24.25l.793.75-1.079 1.25c-.792.917.251 5.243 3.915 16.25 2.842 8.539 5.302 18.015 5.711 22 .675 6.58 1.807 9.017 3.655 7.875 1.305-.806.91-9.917-.786-18.127-.871-4.217-2.446-9.823-5.416-17.248 3.653 1.99 8.452 2.421 15 2.371 8.976-.069 11.834-.532 19.69-3.187 20.871-7.054 39.729-18.606 54.936-33.654 7.582-7.502 9.815-10.468 13.201-17.53 5.573-11.623 6.308-15.837 6.236-35.75L604 471l2.5 11.25c3.589 16.148 4.845 29.265 4.233 44.197-1.184 28.882-6.956 41.803-24.115 53.983-15.117 10.731-42.181 25.632-59.722 32.883-13.879 5.737-19.909 6.957-31.985 6.474l-10.588-.423-.673-8.932c-1.238-16.415-5.928-31.025-17.187-53.537-13.223-26.44-36.216-56.348-56.766-73.84-35.282-30.032-66.786-42.436-88.881-34.993-7.393 2.491-7.773 2.148-7.816-7.062l.547-2.777c.301-1.527 1.2-4.902 3.453-12.223"/><path fill="#dc9457" d="M267 553c16.429-.114 24.416.385 28.349 1.035 11.94 1.974 28.048 8.746 41.854 17.595 4.762 3.052 7.332 4.17 7.923 3.444L346 574l12 9 7 6-1.642-.25c-3.397-.517-2.264 2.147 2.852 6.705 8.051 7.172 16.365 17.006 23.481 27.773 6.944 10.507 7.937 11.544 9.523 9.958.719-.719.23-2.448-4.214-10.186 4.919 2.504 8.478 3.231 11.082 3.231 10.731 0 29.222-12.423 35.249-23.68 1.788-3.34 2.155-5.63 2.09-13.051-.068-7.763-.573-10.33-3.68-18.677-17.907-48.109-57.631-90.117-99.491-105.209L333 463l-16-3 4.855-2.5c7.121-3.667 14.968-4.193 24.945-1.67 15.869 4.013 33.739 14.074 52.769 29.711C439.368 518.243 475 577.938 475 611.91v5.994l-4.75 3.282c-11.096 7.668-35.975 23.153-42.382 26.38-9.753 4.912-17.853 6.814-25.623 6.018-8.767-.898-12.67-2.981-14.908-7.954-4.771-10.603-19.892-29.705-31.642-39.97-15.606-13.635-34.16-25.067-50.695-31.237-6.502-2.426-8.963-2.803-18.5-2.836-10.206-.035-11.442.176-17.115 2.937l-6.114 2.976-1.586-3.753c-.872-2.064-2.058-6.452-3.685-15.747z"/><path fill="#fcc475" d="m263 694 .895-.494c.515-.285.439-2.299-.182-4.75-.611-2.412-1.107-14.654-1.145-28.256-.079-28.054 1.374-37.318 9.372-59.757l3.122-8.758-2.446-1.114c-1.8-.82-3.26-.818-8.616 1.129l2-4 6.744.042c9.134.057 20.441 2.47 28.063 5.992C322.977 604.277 347 627.898 347 639.453c0 12.25-9.333 23.293-35.364 41.845C295.661 692.683 275.762 700.129 267 698zM772 420l-3.75 4.724c-5.981 7.535-9.175 10.045-18.75 14.735-10.517 5.151-19.35 8.158-28.722 9.777-12.421 2.146-15.739-1.376-19.72-20.937-4.069-19.993-8.762-34.159-16.522-49.863C673.814 356.737 674.094 358 680 358l.75-.091c2.432-.296 24.553 4.481 31.043 6.703 9.746 3.337 26.192 11.488 32.707 16.211 12.148 8.806 22.858 21.272 26.052 30.324.796 2.257 1.448 5.173 1.448 8.853m-90.234-59.356c-2.095 1.295 1.412 8.147 4.502 8.794 29.776 6.235 46.561 12.372 63.58 23.246 7.822 4.998 8.368 3.558 1.035-2.726-3.503-3.002-7.047-6.218-7.876-7.147-3.929-4.403-35.836-18.797-41.713-18.817-.987-.003-3.078-.676-4.648-1.495s-3.207-1.27-3.639-1.003-2.966.078-5.63-.42c-2.665-.498-5.19-.692-5.611-.432"/><path fill="#dc9457" d="M267 698c8.762 2.129 28.661-5.317 44.636-16.702C337.667 662.746 347 651.703 347 639.453c0-11.555-24.023-35.176-46.193-45.419-7.622-3.522-18.929-5.935-28.063-5.992L266 588l1.75-1.899c2.911-3.158 9.889-6.094 16.003-6.733 12.844-1.342 34.29 7.643 54.86 22.987 14.565 10.864 32.339 30.625 39.358 43.757l2.999 5.612-20.235 15.043c-38.464 28.594-44.677 32.599-56.911 36.675-8.98 2.992-19.943 3.419-26.896 1.047-2.435-.831-5.665-2.63-9.928-6.489M562 354c7.742 7.03 23.78 27.64 31.509 40.493 16.196 26.932 27.775 56.853 31.972 82.616 4.002 24.569 7.221 28.858 19.079 25.421 5.161-1.496 6.925-2.732 13.447-9.424 4.129-4.236 8.066-8.693 8.75-9.904L668 481l-1.471 9.729c-1.452 9.605-.952 13.094 1.522 10.62 1.576-1.576 3.822-10.931 4.553-18.962.441-4.849.289-7.316-1.604-8.387 4.354-1.698 9.732-18.415 10.537-32.75L682 433h.527c1.132 0 1.546 32.102.548 42.5-1.546 16.107-4.772 26.266-10.903 34.33-4.814 6.332-21.887 17.906-41.99 28.464l-11.682 6.135.36-16.393c.568-25.873-2.655-48.587-11.003-77.536-6.928-24.025-19.199-52.533-30.992-72-2.999-4.95-7.57-12.487-14.865-24.5"/><path fill="#feddab" d="M495 318c.73 1.329 3.717 2.303 7.109 3.023 9.585 2.034 21.526 8.659 29.416 16.319 3.758 3.648 6.536 6.931 6.172 7.295s-3.264-.727-6.444-2.422c-17.322-9.233-36.756-11.475-59.253-6.839-26.053 5.369-55.996 17.307-76.5 30.501-18.024 11.598-37.663 29.188-48.066 43.049l-6.409 8.54-6.263 1.133c-3.444.623-7.724 1.474-9.512 1.892-2.08.486-3.25.382-3.25-.288 0-.576 2.047-4.099 4.548-7.829s4.526-7.59 4.5-8.578L331 402l-.064-.75c-.091-1.07 23.592-24.332 29.564-29.039 22.681-17.875 54.272-34.691 84-44.712C464.639 320.71 479.047 318 495 318"/><path fill="#dc9457" d="M680 358c-5.906 0-6.186-1.263 4.536 20.436 7.76 15.704 12.453 29.87 16.522 49.863 3.981 19.561 7.299 23.083 19.72 20.937 9.372-1.619 18.205-4.626 28.722-9.777 9.575-4.69 12.769-7.2 18.75-14.735L772 420l-.027 4.25c-.055 8.885-4.078 16.057-14.084 25.112-6.819 6.171-14.12 10.166-45.275 24.771l-21.114 9.898.359-19.766c.631-34.768-3.21-57.838-17.859-107.265z"/><path fill="#feddab" d="M346 574c-22.822-19.733-50.036-29.165-72.083-24.984-2.946.559-5.706 1.684-6.136 2.5L267 553l-9 5v-6.29c0-14.99 7.547-32.165 25-56.897 8.892-12.6 27.688-31.846 34-34.813l16 3c-29.847 29.655-38.717 40.585-48.298 59.518-3.643 7.199-7.702 18.528-7.702 21.499 0 1.448 1.593 1.768 11.25 2.264 16.487.847 30.896 5.778 47.738 16.337 7.892 4.948 27.693 22.467 23.762 21.024L358 583zM618 325c5.037 3.003 10.1 4.862 14.5 6.068 7.825 2.144 8.182 2.381 16.271 10.812 8.244 8.592 12.095 14.88 16.303 26.62 3.733 10.414-1.723 5.761-7.621-6.5-6.247-12.985-6.399-13.161-10.615-12.318-2.069.414-3.7-.186-6.547-2.41-10.951-8.555-19.847-11.239-37.291-11.249-13.962-.008-26.416 1.3-38.788 4.075-10.315 2.314-12.573 1.758-12.013-2.955.232-1.954 1.096-2.729 3.801-3.414 1.925-.487 3.927-1.3 4.45-1.807.522-.507 2.38-.922 4.128-.922s3.683-.675 4.3-1.5L570 328l10.25-1.492c5.638-.821 16.438-1.496 37.75-1.508"/><path fill="#643218" d="M329 422c23.814-.352 25.004-.18 33.5 2.906 15.944 5.791 29.494 14.245 47 29.325 24.344 20.97 50.204 52.406 63.358 77.019L477 539c0 4.443-3.149 1.023-13.814-15-14.766-22.186-25.722-35.673-43.117-53.079-31.353-31.374-56.064-44.864-82.26-44.906-9.597-.015-11.628-.609-9.769-2.855z"/><path fill="#feddab" d="M264 592c5.356-1.947 6.816-1.949 8.616-1.129l2.446 1.114-3.122 8.758c-7.998 22.439-9.451 31.703-9.372 59.757.038 13.602.534 25.844 1.145 28.256.621 2.451.697 4.465.182 4.75L263 694l-3.413-5.75c-5.887-9.919-6.684-15.197-7.587-50.25l.552-2.844c2.97-15.311 5.473-24.746 11.448-43.156M681.766 360.644c.421-.26 2.946-.066 5.611.432s5.198.687 5.63.42 2.069.184 3.639 1.003 3.661 1.492 4.648 1.495c5.877.02 37.784 14.414 41.713 18.817.829.929 4.373 4.145 7.876 7.147 7.333 6.284 6.787 7.724-1.035 2.726-17.019-10.874-33.804-17.011-63.58-23.246-3.09-.647-6.597-7.499-4.502-8.794"/><path fill="#643218" d="M648.317 352c1.317 0 7.922 12.472 11.803 22.288 3.846 9.728 8.833 29.857 10.296 41.557 2.089 16.704 2.799 29.437 1.73 31.033-1.766 2.637-2.857.133-3.531-8.097-2.227-27.197-8.302-52.558-18.264-76.251-3.67-8.727-4.018-10.53-2.034-10.53M518.918 492.55c.568-.351 4.307-.371 8.308-.045 9.128.744 11.25-.301 15.283-7.521 3.166-5.668 5.818-6.998 7.774-3.897 2.693 4.269-3.493 14.886-10.651 18.283-7.312 3.47-20.73.95-21.439-4.026-.169-1.186.157-2.443.725-2.794M365 589c12.385 10.594 21.672 20.701 27.339 29.75L395 623c4.444 7.738 4.933 9.467 4.214 10.186-1.586 1.586-2.579.549-9.523-9.958-7.116-10.767-15.43-20.601-23.481-27.773-5.116-4.558-6.249-7.222-2.852-6.705zM489 564c2.129 1.938 3.48 4.638 4.374 7.25L495 576c2.97 7.425 4.545 13.031 5.416 17.248 1.696 8.21 2.091 17.321.786 18.127-1.848 1.142-2.98-1.295-3.655-7.875-.409-3.985-2.869-13.461-5.711-22-3.664-11.007-4.707-15.333-3.915-16.25zM489.343 490.566c3.31-3.31 5.142-3.235 8.734.357 3.436 3.436 3.782 7.218.923 10.077-4.001 4.001-10.433 1.406-11.609-4.684-.496-2.568-.118-3.68 1.952-5.75M668 481l3-7c1.893 1.071 2.045 3.538 1.604 8.387-.731 8.031-2.977 17.386-4.553 18.962-2.474 2.474-2.974-1.015-1.522-10.62zM559 456c2.555-2.555 5.052-2.533 8.365.073 3.622 2.849 3.754 9.148.241 11.45-6.773 4.438-14.38-5.749-8.606-11.523"/><path fill="#6d3817" d="m346 574-.874 1.074c-.591.726-3.161-.392-7.923-3.444-13.806-8.849-29.914-15.621-41.854-17.595-3.933-.65-11.92-1.149-28.349-1.035l.781-1.484c.43-.816 3.19-1.941 6.136-2.5 22.047-4.181 49.261 5.251 72.083 24.984"/></svg>