<?xml version="1.0" encoding="UTF-8"?>
<svg width="1024" height="1024" viewBox="0 0 1024 1024" xmlns="http://www.w3.org/2000/svg">
  <path id="1" d="M 0,1024 C 0,682.667 0,341.333 0,0 C 341.333,0 682.667,0 1024,0 C 1024,341.333 1024,682.667 1024,1024 C 682.667,1024 341.333,1024 0,1024 ZM 244.035,636.514 C 242.657,648.583 243.581,668.122 245.972,677.500 C 250.844,696.604 260.654,708.264 275.855,713.014 C 290.757,717.671 307.243,713.668 328.737,700.174 C 336.196,695.491 352.621,683.597 377.658,664.748 C 380.711,662.450 383.763,660.151 386.816,657.853 C 387.930,658.461 389.044,659.069 390.158,659.677 C 392.866,661.154 395.776,661.500 405.500,661.500 C 416.846,661.500 417.914,661.322 425.085,658.226 C 435.019,653.937 447.473,646.748 463.500,636.053 C 470.650,631.282 477.272,627.088 478.215,626.734 C 479.158,626.380 482.983,626.737 486.715,627.528 C 495.360,629.360 503.855,629.359 511.631,627.525 C 524.116,624.581 546.437,614.585 567.600,602.461 C 594.728,586.920 606.942,576.255 612.981,562.836 C 614.119,560.307 615.256,557.779 616.394,555.250 C 619.226,553.845 622.059,552.441 624.891,551.036 C 637.921,544.574 658.738,532.383 666.245,526.818 C 669.955,524.068 674.794,519.769 676.998,517.265 C 681.319,512.356 688,499.937 688,496.813 C 688,495.417 689.837,494.054 694.750,491.805 C 717.586,481.352 745.569,467.775 752,464.030 C 762.418,457.963 773.118,447.084 777.249,438.363 C 780.246,432.036 780.500,430.715 780.500,421.447 C 780.500,411.851 780.330,411.051 776.762,403.832 C 763.335,376.668 720.697,352.601 680.500,349.497 C 668.825,348.596 668.708,348.545 664.622,342.613 C 656.037,330.148 643.323,321.708 628.163,318.410 C 609.345,314.316 584.207,315.906 555.266,323.021 C 549.562,324.423 543.857,325.827 538.153,327.229 C 535.266,325.308 532.380,323.387 529.493,321.466 C 524.323,318.026 517.339,314.481 512.166,312.669 C 504.227,309.888 502.410,309.634 490.500,309.635 C 479.913,309.636 475.345,310.138 465.892,312.337 C 400.382,327.575 331.400,373.729 311.920,415.358 C 306.934,426.012 304.652,437.094 305.279,447.604 C 305.460,450.644 305.642,453.683 305.823,456.723 C 303.162,459.353 300.501,461.981 297.840,464.611 C 276.356,485.840 256.137,517.289 251.017,537.438 C 247.397,551.686 249.088,568.346 255.423,580.848 C 256.274,582.528 257.126,584.208 257.977,585.888 C 257.335,587.386 256.692,588.884 256.050,590.382 C 251.131,601.858 245.542,623.318 244.035,636.514 Z" fill="#FAF4E0" stroke="none" />
  <path id="26" d="M 244.035,636.514 C 245.542,623.318 251.131,601.858 256.050,590.382 C 256.692,588.884 257.335,587.386 257.977,585.888 C 257.126,584.208 256.274,582.528 255.423,580.848 C 249.088,568.346 247.397,551.686 251.017,537.438 C 256.137,517.289 276.356,485.840 297.840,464.611 C 300.501,461.981 303.162,459.353 305.823,456.723 C 305.642,453.683 305.460,450.644 305.279,447.604 C 304.652,437.094 306.934,426.012 311.920,415.358 C 331.400,373.729 400.382,327.575 465.892,312.337 C 475.345,310.138 479.913,309.636 490.500,309.635 C 502.410,309.634 504.227,309.888 512.166,312.669 C 517.339,314.481 524.323,318.026 529.493,321.466 C 532.380,323.387 535.266,325.308 538.153,327.229 C 543.857,325.827 549.562,324.423 555.266,323.021 C 584.207,315.906 609.345,314.316 628.163,318.410 C 643.323,321.708 656.037,330.148 664.622,342.613 C 668.708,348.545 668.825,348.596 680.500,349.497 C 720.697,352.601 763.335,376.668 776.762,403.832 C 780.330,411.051 780.500,411.851 780.500,421.447 C 780.500,430.715 780.246,432.036 777.249,438.363 C 773.118,447.084 762.418,457.963 752,464.030 C 745.569,467.775 717.586,481.352 694.750,491.805 C 689.837,494.054 688,495.417 688,496.813 C 688,499.937 681.319,512.356 676.998,517.265 C 674.794,519.769 669.955,524.068 666.245,526.818 C 658.738,532.383 637.921,544.574 624.891,551.036 C 622.059,552.441 619.226,553.845 616.394,555.250 C 615.256,557.779 614.119,560.307 612.981,562.836 C 606.942,576.255 594.728,586.920 567.600,602.461 C 546.437,614.585 524.116,624.581 511.631,627.525 C 503.855,629.359 495.360,629.360 486.715,627.528 C 482.983,626.737 479.158,626.380 478.215,626.734 C 477.272,627.088 470.650,631.282 463.500,636.053 C 447.473,646.748 435.019,653.937 425.085,658.226 C 417.914,661.322 416.846,661.500 405.500,661.500 C 395.776,661.500 392.866,661.154 390.158,659.677 C 389.044,659.069 387.930,658.461 386.816,657.853 C 383.763,660.151 380.711,662.450 377.658,664.748 C 352.621,683.597 336.196,695.491 328.737,700.174 C 307.243,713.668 290.757,717.671 275.855,713.014 C 260.654,708.264 250.844,696.604 245.972,677.500 C 243.581,668.122 242.657,648.583 244.035,636.514 ZM 263,694 C 264.333,695.333 265.667,696.667 267,698 C 271.263,701.859 274.493,703.658 276.928,704.489 C 283.881,706.861 294.844,706.434 303.824,703.442 C 316.058,699.366 322.271,695.361 360.735,666.767 C 367.480,661.753 374.225,656.738 380.970,651.724 C 379.970,649.853 378.971,647.983 377.971,646.112 C 370.952,632.980 353.178,613.219 338.613,602.355 C 318.043,587.011 296.597,578.026 283.753,579.368 C 277.639,580.007 270.661,582.943 267.750,586.101 C 267.167,586.734 266.583,587.367 266,588 C 265.333,589.333 264.667,590.667 264,592 C 258.025,610.410 255.522,619.845 252.552,635.156 C 252.368,636.104 252.184,637.052 252,638 C 252.903,673.053 253.700,678.331 259.587,688.250 C 260.725,690.167 261.862,692.083 263,694 ZM 604,471 C 594.186,428.347 581.886,399.961 557.635,364 C 539.471,337.064 517.968,320.077 499.974,318.450 C 498.316,318.300 496.658,318.150 495,318 C 479.047,318 464.639,320.710 444.500,327.499 C 414.772,337.520 383.181,354.336 360.500,372.211 C 354.528,376.918 330.845,400.180 330.936,401.250 C 330.957,401.500 330.979,401.750 331,402 C 324.596,410.138 321.445,415.538 319.868,419.250 C 318.912,421.500 317.956,423.750 317,426 C 314.747,433.321 313.848,436.696 313.547,438.223 C 313.365,439.149 313.182,440.074 313,441 C 313.043,450.210 313.423,450.553 320.816,448.062 C 342.911,440.619 374.415,453.023 409.697,483.055 C 430.247,500.547 453.240,530.455 466.463,556.895 C 477.722,579.407 482.412,594.017 483.650,610.432 C 483.874,613.409 484.099,616.387 484.323,619.364 C 487.852,619.505 491.382,619.646 494.911,619.787 C 506.987,620.270 513.017,619.050 526.896,613.313 C 544.437,606.062 571.501,591.161 586.618,580.430 C 603.777,568.250 609.549,555.329 610.733,526.447 C 611.345,511.515 610.089,498.398 606.500,482.250 C 605.667,478.500 604.833,474.750 604,471 ZM 570,328 C 562,330 554,332 546,334 C 551.333,340.667 556.667,347.333 562,354 C 569.295,366.013 573.866,373.550 576.865,378.500 C 588.658,397.967 600.929,426.475 607.857,450.500 C 616.205,479.449 619.428,502.163 618.860,528.036 C 618.740,533.500 618.620,538.965 618.500,544.429 C 622.394,542.384 626.288,540.339 630.182,538.294 C 650.285,527.736 667.358,516.162 672.172,509.830 C 678.303,501.766 681.529,491.607 683.075,475.500 C 684.073,465.102 683.659,433 682.527,433 C 682.351,433 682.176,433 682,433 C 679.483,398.087 668.028,360.905 654.502,343.748 C 646.768,333.937 639.610,329.786 624.750,326.495 C 622.500,325.997 620.250,325.498 618,325 C 596.688,325.012 585.888,325.687 580.250,326.508 C 576.833,327.005 573.417,327.503 570,328 ZM 772,420 C 772,416.320 771.348,413.404 770.552,411.147 C 767.358,402.095 756.648,389.629 744.500,380.823 C 737.985,376.100 721.539,367.949 711.793,364.612 C 705.303,362.390 683.182,357.613 680.750,357.909 C 680.500,357.939 680.250,357.970 680,358 C 678,357.667 676,357.333 674,357 C 688.649,406.427 692.490,429.497 691.859,464.265 C 691.739,470.853 691.620,477.443 691.500,484.031 C 698.538,480.732 705.576,477.432 712.614,474.133 C 743.769,459.528 751.070,455.533 757.889,449.362 C 767.895,440.307 771.918,433.135 771.973,424.250 C 771.982,422.833 771.991,421.417 772,420 ZM 258,558 C 259.627,567.295 260.813,571.683 261.685,573.747 C 262.214,574.998 262.742,576.249 263.271,577.500 C 265.309,576.508 267.347,575.516 269.385,574.524 C 275.058,571.763 276.294,571.552 286.500,571.587 C 296.037,571.620 298.498,571.997 305,574.423 C 321.535,580.593 340.089,592.025 355.695,605.660 C 367.445,615.925 382.566,635.027 387.337,645.630 C 389.575,650.603 393.478,652.686 402.245,653.584 C 410.015,654.380 418.115,652.478 427.868,647.566 C 434.275,644.339 459.154,628.854 470.250,621.186 C 471.833,620.092 473.417,618.998 475,617.904 C 475,615.906 475,613.908 475,611.910 C 475,577.938 439.368,518.243 399.569,485.541 C 380.539,469.904 362.669,459.843 346.800,455.830 C 336.823,453.307 328.976,453.833 321.855,457.500 C 320.237,458.333 318.618,459.167 317,460 C 310.688,462.967 291.892,482.213 283,494.813 C 265.547,519.545 258,536.720 258,551.710 C 258,553.807 258,555.903 258,558 Z" fill="#643218" stroke="none" />
  <path id="19" d="M 329,422 C 325,423.333 321,424.667 317,426 C 317.956,423.750 318.912,421.500 319.868,419.250 C 321.445,415.538 324.596,410.138 331,402 C 331.016,402.599 331.032,403.197 331.048,403.796 C 331.074,404.784 329.049,408.644 326.548,412.374 C 324.047,416.104 322,419.627 322,420.203 C 322,420.873 323.170,420.977 325.250,420.491 C 327.038,420.073 331.318,419.222 334.762,418.599 C 336.849,418.221 338.938,417.844 341.025,417.466 C 343.162,414.619 345.297,411.773 347.434,408.926 C 357.837,395.065 377.476,377.475 395.500,365.877 C 416.004,352.683 445.947,340.745 472,335.376 C 494.497,330.740 513.931,332.982 531.253,342.215 C 534.433,343.910 537.333,345.001 537.697,344.637 C 538.061,344.273 535.283,340.990 531.525,337.342 C 523.635,329.682 511.694,323.057 502.109,321.023 C 498.717,320.303 495.730,319.329 495,318 C 496.658,318.150 498.316,318.300 499.974,318.450 C 517.968,320.077 539.471,337.064 557.635,364 C 581.886,399.961 594.186,428.347 604,471 C 604.021,476.750 604.042,482.500 604.063,488.250 C 604.135,508.163 603.400,512.377 597.827,524 C 594.441,531.062 592.208,534.028 584.626,541.530 C 569.419,556.578 550.561,568.130 529.690,575.184 C 521.834,577.839 518.976,578.302 510,578.371 C 503.452,578.421 498.653,577.990 495,576 C 494.458,574.417 493.916,572.833 493.374,571.250 C 492.480,568.638 491.129,565.938 489,564 C 488.736,563.750 488.471,563.500 488.207,563.250 C 486.553,561.686 478.502,544.266 477,539 C 475.619,536.417 474.239,533.833 472.858,531.250 C 459.704,506.637 433.844,475.201 409.500,454.231 C 391.994,439.151 378.444,430.697 362.500,424.906 C 354.004,421.820 352.814,421.648 329,422 ZM 489.343,490.566 C 487.273,492.636 486.895,493.748 487.391,496.316 C 488.567,502.406 494.999,505.001 499,501 C 501.859,498.141 501.513,494.359 498.077,490.923 C 494.485,487.331 492.653,487.256 489.343,490.566 ZM 518.918,492.550 C 518.350,492.901 518.024,494.158 518.193,495.344 C 518.902,500.320 532.320,502.840 539.632,499.370 C 546.790,495.973 552.976,485.356 550.283,481.087 C 548.327,477.986 545.675,479.316 542.509,484.984 C 538.476,492.204 536.354,493.249 527.226,492.505 C 523.225,492.179 519.486,492.199 518.918,492.550 ZM 559,456 C 553.226,461.774 560.833,471.961 567.606,467.523 C 571.119,465.221 570.987,458.922 567.365,456.073 C 564.052,453.467 561.555,453.445 559,456 Z" fill="#FCC475" stroke="none" />
  <path id="19" d="M 358,583 C 358.583,583.214 359.167,583.428 359.750,583.642 C 363.681,585.085 343.880,567.566 335.988,562.618 C 319.146,552.059 304.737,547.128 288.250,546.281 C 278.593,545.785 277,545.465 277,544.017 C 277,541.046 281.059,529.717 284.702,522.518 C 294.283,503.585 303.153,492.655 333,463 C 335.417,463.871 337.833,464.743 340.250,465.614 C 382.110,480.706 421.834,522.714 439.741,570.823 C 442.848,579.170 443.353,581.737 443.421,589.500 C 443.486,596.921 443.119,599.211 441.331,602.551 C 435.304,613.808 416.813,626.231 406.082,626.231 C 403.478,626.231 399.919,625.504 395,623 C 394.113,621.583 393.226,620.167 392.339,618.750 C 386.672,609.701 377.385,599.594 365,589 C 362.667,587 360.333,585 358,583 Z" fill="#FCC475" stroke="none" />
  <path id="19" d="M 546,334 C 554,332 562,330 570,328 C 569.626,328.500 569.252,329 568.878,329.500 C 568.261,330.325 566.326,331 564.578,331 C 562.830,331 560.972,331.415 560.450,331.922 C 559.927,332.429 557.925,333.242 556,333.729 C 553.295,334.414 552.431,335.189 552.199,337.143 C 551.639,341.856 553.897,342.412 564.212,340.098 C 576.584,337.323 589.038,336.015 603,336.023 C 620.444,336.033 629.340,338.717 640.291,347.272 C 643.138,349.496 644.769,350.096 646.838,349.682 C 651.054,348.839 651.206,349.015 657.453,362 C 663.351,374.261 668.807,378.914 665.074,368.500 C 660.866,356.760 657.015,350.472 648.771,341.880 C 640.682,333.449 640.325,333.212 632.500,331.068 C 628.100,329.862 623.037,328.003 618,325 C 620.250,325.498 622.500,325.997 624.750,326.495 C 639.610,329.786 646.768,333.937 654.502,343.748 C 668.028,360.905 679.483,398.087 682,433 C 681.846,435.750 681.691,438.500 681.537,441.250 C 680.732,455.585 675.354,472.302 671,474 C 670,476.333 669,478.667 668,481 C 667.586,481.734 667.171,482.468 666.757,483.202 C 666.073,484.413 662.136,488.870 658.007,493.106 C 651.485,499.798 649.721,501.034 644.560,502.530 C 632.702,505.967 629.483,501.678 625.481,477.109 C 621.284,451.346 609.705,421.425 593.509,394.493 C 585.780,381.640 569.742,361.030 562,354 C 556.667,347.333 551.333,340.667 546,334 ZM 648.317,352 C 646.333,352 646.681,353.803 650.351,362.530 C 660.313,386.223 666.388,411.584 668.615,438.781 C 669.289,447.011 670.380,449.515 672.146,446.878 C 673.215,445.282 672.505,432.549 670.416,415.845 C 668.953,404.145 663.966,384.016 660.120,374.288 C 656.239,364.472 649.634,352 648.317,352 Z" fill="#FCC475" stroke="none" />
  <path id="20" d="M 317,426 C 321,424.667 325,423.333 329,422 C 328.680,422.387 328.360,422.773 328.040,423.160 C 326.181,425.406 328.212,426 337.809,426.015 C 364.005,426.057 388.716,439.547 420.069,470.921 C 437.464,488.327 448.420,501.814 463.186,524 C 473.851,540.023 477,543.443 477,539 C 478.502,544.266 486.553,561.686 488.207,563.250 C 488.471,563.500 488.736,563.750 489,564 C 488.640,564.417 488.281,564.833 487.921,565.250 C 487.129,566.167 488.172,570.493 491.836,581.500 C 494.678,590.039 497.138,599.515 497.547,603.500 C 498.222,610.080 499.354,612.517 501.202,611.375 C 502.507,610.569 502.112,601.458 500.416,593.248 C 499.545,589.031 497.970,583.425 495,576 C 498.653,577.990 503.452,578.421 510,578.371 C 518.976,578.302 521.834,577.839 529.690,575.184 C 550.561,568.130 569.419,556.578 584.626,541.530 C 592.208,534.028 594.441,531.062 597.827,524 C 603.400,512.377 604.135,508.163 604.063,488.250 C 604.042,482.500 604.021,476.750 604,471 C 604.833,474.750 605.667,478.500 606.500,482.250 C 610.089,498.398 611.345,511.515 610.733,526.447 C 609.549,555.329 603.777,568.250 586.618,580.430 C 571.501,591.161 544.437,606.062 526.896,613.313 C 513.017,619.050 506.987,620.270 494.911,619.787 C 491.382,619.646 487.852,619.505 484.323,619.364 C 484.099,616.387 483.874,613.409 483.650,610.432 C 482.412,594.017 477.722,579.407 466.463,556.895 C 453.240,530.455 430.247,500.547 409.697,483.055 C 374.415,453.023 342.911,440.619 320.816,448.062 C 313.423,450.553 313.043,450.210 313,441 C 313.182,440.074 313.365,439.149 313.547,438.223 C 313.848,436.696 314.747,433.321 317,426 Z" fill="#DC9457" stroke="none" />
  <path id="20" d="M 267,553 C 283.429,552.886 291.416,553.385 295.349,554.035 C 307.289,556.009 323.397,562.781 337.203,571.630 C 341.965,574.682 344.535,575.800 345.126,575.074 C 345.417,574.716 345.709,574.358 346,574 C 350,577 354,580 358,583 C 360.333,585 362.667,587 365,589 C 364.453,588.917 363.905,588.833 363.358,588.750 C 359.961,588.233 361.094,590.897 366.210,595.455 C 374.261,602.627 382.575,612.461 389.691,623.228 C 396.635,633.735 397.628,634.772 399.214,633.186 C 399.933,632.467 399.444,630.738 395,623 C 399.919,625.504 403.478,626.231 406.082,626.231 C 416.813,626.231 435.304,613.808 441.331,602.551 C 443.119,599.211 443.486,596.921 443.421,589.500 C 443.353,581.737 442.848,579.170 439.741,570.823 C 421.834,522.714 382.110,480.706 340.250,465.614 C 337.833,464.743 335.417,463.871 333,463 C 327.667,462 322.333,461 317,460 C 318.618,459.167 320.237,458.333 321.855,457.500 C 328.976,453.833 336.823,453.307 346.800,455.830 C 362.669,459.843 380.539,469.904 399.569,485.541 C 439.368,518.243 475,577.938 475,611.910 C 475,613.908 475,615.906 475,617.904 C 473.417,618.998 471.833,620.092 470.250,621.186 C 459.154,628.854 434.275,644.339 427.868,647.566 C 418.115,652.478 410.015,654.380 402.245,653.584 C 393.478,652.686 389.575,650.603 387.337,645.630 C 382.566,635.027 367.445,615.925 355.695,605.660 C 340.089,592.025 321.535,580.593 305,574.423 C 298.498,571.997 296.037,571.620 286.500,571.587 C 276.294,571.552 275.058,571.763 269.385,574.524 C 267.347,575.516 265.309,576.508 263.271,577.500 C 262.742,576.249 262.214,574.998 261.685,573.747 C 260.813,571.683 259.627,567.295 258,558 C 261,556.333 264,554.667 267,553 Z" fill="#DC9457" stroke="none" />
  <path id="19" d="M 263,694 C 263.298,693.835 263.597,693.671 263.895,693.506 C 264.410,693.221 264.334,691.207 263.713,688.756 C 263.102,686.344 262.606,674.102 262.568,660.500 C 262.489,632.446 263.942,623.182 271.940,600.743 C 272.981,597.824 274.021,594.904 275.062,591.985 C 274.247,591.614 273.431,591.242 272.616,590.871 C 270.816,590.051 269.356,590.053 264,592 C 264.667,590.667 265.333,589.333 266,588 C 268.248,588.014 270.496,588.028 272.744,588.042 C 281.878,588.099 293.185,590.512 300.807,594.034 C 322.977,604.277 347,627.898 347,639.453 C 347,651.703 337.667,662.746 311.636,681.298 C 295.661,692.683 275.762,700.129 267,698 C 265.667,696.667 264.333,695.333 263,694 Z" fill="#FCC475" stroke="none" />
  <path id="19" d="M 772,420 C 770.750,421.575 769.500,423.149 768.250,424.724 C 762.269,432.259 759.075,434.769 749.500,439.459 C 738.983,444.610 730.150,447.617 720.778,449.236 C 708.357,451.382 705.039,447.860 701.058,428.299 C 696.989,408.306 692.296,394.140 684.536,378.436 C 673.814,356.737 674.094,358 680,358 C 680.250,357.970 680.500,357.939 680.750,357.909 C 683.182,357.613 705.303,362.390 711.793,364.612 C 721.539,367.949 737.985,376.100 744.500,380.823 C 756.648,389.629 767.358,402.095 770.552,411.147 C 771.348,413.404 772,416.320 772,420 ZM 681.766,360.644 C 679.671,361.939 683.178,368.791 686.268,369.438 C 716.044,375.673 732.829,381.810 749.848,392.684 C 757.670,397.682 758.216,396.242 750.883,389.958 C 747.380,386.956 743.836,383.740 743.007,382.811 C 739.078,378.408 707.171,364.014 701.294,363.994 C 700.307,363.991 698.216,363.318 696.646,362.499 C 695.076,361.680 693.439,361.229 693.007,361.496 C 692.575,361.763 690.041,361.574 687.377,361.076 C 684.712,360.578 682.187,360.384 681.766,360.644 Z" fill="#FCC475" stroke="none" />
  <path id="20" d="M 267,698 C 275.762,700.129 295.661,692.683 311.636,681.298 C 337.667,662.746 347,651.703 347,639.453 C 347,627.898 322.977,604.277 300.807,594.034 C 293.185,590.512 281.878,588.099 272.744,588.042 C 270.496,588.028 268.248,588.014 266,588 C 266.583,587.367 267.167,586.734 267.750,586.101 C 270.661,582.943 277.639,580.007 283.753,579.368 C 296.597,578.026 318.043,587.011 338.613,602.355 C 353.178,613.219 370.952,632.980 377.971,646.112 C 378.971,647.983 379.970,649.853 380.970,651.724 C 374.225,656.738 367.480,661.753 360.735,666.767 C 322.271,695.361 316.058,699.366 303.824,703.442 C 294.844,706.434 283.881,706.861 276.928,704.489 C 274.493,703.658 271.263,701.859 267,698 Z" fill="#DC9457" stroke="none" />
  <path id="20" d="M 562,354 C 569.742,361.030 585.780,381.640 593.509,394.493 C 609.705,421.425 621.284,451.346 625.481,477.109 C 629.483,501.678 632.702,505.967 644.560,502.530 C 649.721,501.034 651.485,499.798 658.007,493.106 C 662.136,488.870 666.073,484.413 666.757,483.202 C 667.171,482.468 667.586,481.734 668,481 C 667.510,484.243 667.019,487.486 666.529,490.729 C 665.077,500.334 665.577,503.823 668.051,501.349 C 669.627,499.773 671.873,490.418 672.604,482.387 C 673.045,477.538 672.893,475.071 671,474 C 675.354,472.302 680.732,455.585 681.537,441.250 C 681.691,438.500 681.846,435.750 682,433 C 682.176,433 682.351,433 682.527,433 C 683.659,433 684.073,465.102 683.075,475.500 C 681.529,491.607 678.303,501.766 672.172,509.830 C 667.358,516.162 650.285,527.736 630.182,538.294 C 626.288,540.339 622.394,542.384 618.500,544.429 C 618.620,538.965 618.740,533.500 618.860,528.036 C 619.428,502.163 616.205,479.449 607.857,450.500 C 600.929,426.475 588.658,397.967 576.865,378.500 C 573.866,373.550 569.295,366.013 562,354 Z" fill="#DC9457" stroke="none" />
  <path id="24" d="M 495,318 C 495.730,319.329 498.717,320.303 502.109,321.023 C 511.694,323.057 523.635,329.682 531.525,337.342 C 535.283,340.990 538.061,344.273 537.697,344.637 C 537.333,345.001 534.433,343.910 531.253,342.215 C 513.931,332.982 494.497,330.740 472,335.376 C 445.947,340.745 416.004,352.683 395.500,365.877 C 377.476,377.475 357.837,395.065 347.434,408.926 C 345.297,411.773 343.162,414.619 341.025,417.466 C 338.938,417.844 336.849,418.221 334.762,418.599 C 331.318,419.222 327.038,420.073 325.250,420.491 C 323.170,420.977 322,420.873 322,420.203 C 322,419.627 324.047,416.104 326.548,412.374 C 329.049,408.644 331.074,404.784 331.048,403.796 C 331.032,403.197 331.016,402.599 331,402 C 330.979,401.750 330.957,401.500 330.936,401.250 C 330.845,400.180 354.528,376.918 360.500,372.211 C 383.181,354.336 414.772,337.520 444.500,327.499 C 464.639,320.710 479.047,318 495,318 Z" fill="#FEDDAB" stroke="none" />
  <path id="20" d="M 680,358 C 674.094,358 673.814,356.737 684.536,378.436 C 692.296,394.140 696.989,408.306 701.058,428.299 C 705.039,447.860 708.357,451.382 720.778,449.236 C 730.150,447.617 738.983,444.610 749.500,439.459 C 759.075,434.769 762.269,432.259 768.250,424.724 C 769.500,423.149 770.750,421.575 772,420 C 771.991,421.417 771.982,422.833 771.973,424.250 C 771.918,433.135 767.895,440.307 757.889,449.362 C 751.070,455.533 743.769,459.528 712.614,474.133 C 705.576,477.432 698.538,480.732 691.500,484.031 C 691.620,477.443 691.739,470.853 691.859,464.265 C 692.490,429.497 688.649,406.427 674,357 C 676,357.333 678,357.667 680,358 Z" fill="#DC9457" stroke="none" />
  <path id="24" d="M 346,574 C 323.178,554.267 295.964,544.835 273.917,549.016 C 270.971,549.575 268.211,550.700 267.781,551.516 C 267.521,552.011 267.260,552.505 267,553 C 264,554.667 261,556.333 258,558 C 258,555.903 258,553.807 258,551.710 C 258,536.720 265.547,519.545 283,494.813 C 291.892,482.213 310.688,462.967 317,460 C 322.333,461 327.667,462 333,463 C 303.153,492.655 294.283,503.585 284.702,522.518 C 281.059,529.717 277,541.046 277,544.017 C 277,545.465 278.593,545.785 288.250,546.281 C 304.737,547.128 319.146,552.059 335.988,562.618 C 343.880,567.566 363.681,585.085 359.750,583.642 C 359.167,583.428 358.583,583.214 358,583 C 354,580 350,577 346,574 Z" fill="#FEDDAB" stroke="none" />
  <path id="24" d="M 618,325 C 623.037,328.003 628.100,329.862 632.500,331.068 C 640.325,333.212 640.682,333.449 648.771,341.880 C 657.015,350.472 660.866,356.760 665.074,368.500 C 668.807,378.914 663.351,374.261 657.453,362 C 651.206,349.015 651.054,348.839 646.838,349.682 C 644.769,350.096 643.138,349.496 640.291,347.272 C 629.340,338.717 620.444,336.033 603,336.023 C 589.038,336.015 576.584,337.323 564.212,340.098 C 553.897,342.412 551.639,341.856 552.199,337.143 C 552.431,335.189 553.295,334.414 556,333.729 C 557.925,333.242 559.927,332.429 560.450,331.922 C 560.972,331.415 562.830,331 564.578,331 C 566.326,331 568.261,330.325 568.878,329.500 C 569.252,329 569.626,328.500 570,328 C 573.417,327.503 576.833,327.005 580.250,326.508 C 585.888,325.687 596.688,325.012 618,325 Z" fill="#FEDDAB" stroke="none" />
  <path id="26" d="M 329,422 C 352.814,421.648 354.004,421.820 362.500,424.906 C 378.444,430.697 391.994,439.151 409.500,454.231 C 433.844,475.201 459.704,506.637 472.858,531.250 C 474.239,533.833 475.619,536.417 477,539 C 477,543.443 473.851,540.023 463.186,524 C 448.420,501.814 437.464,488.327 420.069,470.921 C 388.716,439.547 364.005,426.057 337.809,426.015 C 328.212,426 326.181,425.406 328.040,423.160 C 328.360,422.773 328.680,422.387 329,422 Z" fill="#643218" stroke="none" />
  <path id="24" d="M 264,592 C 269.356,590.053 270.816,590.051 272.616,590.871 C 273.431,591.242 274.247,591.614 275.062,591.985 C 274.021,594.904 272.981,597.824 271.940,600.743 C 263.942,623.182 262.489,632.446 262.568,660.500 C 262.606,674.102 263.102,686.344 263.713,688.756 C 264.334,691.207 264.410,693.221 263.895,693.506 C 263.597,693.671 263.298,693.835 263,694 C 261.862,692.083 260.725,690.167 259.587,688.250 C 253.700,678.331 252.903,673.053 252,638 C 252.184,637.052 252.368,636.104 252.552,635.156 C 255.522,619.845 258.025,610.410 264,592 Z" fill="#FEDDAB" stroke="none" />
  <path id="24" d="M 681.766,360.644 C 682.187,360.384 684.712,360.578 687.377,361.076 C 690.041,361.574 692.575,361.763 693.007,361.496 C 693.439,361.229 695.076,361.680 696.646,362.499 C 698.216,363.318 700.307,363.991 701.294,363.994 C 707.171,364.014 739.078,378.408 743.007,382.811 C 743.836,383.740 747.380,386.956 750.883,389.958 C 758.216,396.242 757.670,397.682 749.848,392.684 C 732.829,381.810 716.044,375.673 686.268,369.438 C 683.178,368.791 679.671,361.939 681.766,360.644 Z" fill="#FEDDAB" stroke="none" />
  <path id="26" d="M 648.317,352 C 649.634,352 656.239,364.472 660.120,374.288 C 663.966,384.016 668.953,404.145 670.416,415.845 C 672.505,432.549 673.215,445.282 672.146,446.878 C 670.380,449.515 669.289,447.011 668.615,438.781 C 666.388,411.584 660.313,386.223 650.351,362.530 C 646.681,353.803 646.333,352 648.317,352 Z" fill="#643218" stroke="none" />
  <path id="26" d="M 518.918,492.550 C 519.486,492.199 523.225,492.179 527.226,492.505 C 536.354,493.249 538.476,492.204 542.509,484.984 C 545.675,479.316 548.327,477.986 550.283,481.087 C 552.976,485.356 546.790,495.973 539.632,499.370 C 532.320,502.840 518.902,500.320 518.193,495.344 C 518.024,494.158 518.350,492.901 518.918,492.550 Z" fill="#643218" stroke="none" />
  <path id="26" d="M 365,589 C 377.385,599.594 386.672,609.701 392.339,618.750 C 393.226,620.167 394.113,621.583 395,623 C 399.444,630.738 399.933,632.467 399.214,633.186 C 397.628,634.772 396.635,633.735 389.691,623.228 C 382.575,612.461 374.261,602.627 366.210,595.455 C 361.094,590.897 359.961,588.233 363.358,588.750 C 363.905,588.833 364.453,588.917 365,589 Z" fill="#643218" stroke="none" />
  <path id="26" d="M 489,564 C 491.129,565.938 492.480,568.638 493.374,571.250 C 493.916,572.833 494.458,574.417 495,576 C 497.970,583.425 499.545,589.031 500.416,593.248 C 502.112,601.458 502.507,610.569 501.202,611.375 C 499.354,612.517 498.222,610.080 497.547,603.500 C 497.138,599.515 494.678,590.039 491.836,581.500 C 488.172,570.493 487.129,566.167 487.921,565.250 C 488.281,564.833 488.640,564.417 489,564 Z" fill="#643218" stroke="none" />
  <path id="26" d="M 489.343,490.566 C 492.653,487.256 494.485,487.331 498.077,490.923 C 501.513,494.359 501.859,498.141 499,501 C 494.999,505.001 488.567,502.406 487.391,496.316 C 486.895,493.748 487.273,492.636 489.343,490.566 Z" fill="#643218" stroke="none" />
  <path id="26" d="M 668,481 C 669,478.667 670,476.333 671,474 C 672.893,475.071 673.045,477.538 672.604,482.387 C 671.873,490.418 669.627,499.773 668.051,501.349 C 665.577,503.823 665.077,500.334 666.529,490.729 C 667.019,487.486 667.510,484.243 668,481 Z" fill="#643218" stroke="none" />
  <path id="26" d="M 559,456 C 561.555,453.445 564.052,453.467 567.365,456.073 C 570.987,458.922 571.119,465.221 567.606,467.523 C 560.833,471.961 553.226,461.774 559,456 Z" fill="#643218" stroke="none" />
  <path id="6" d="M 346,574 C 345.709,574.358 345.417,574.716 345.126,575.074 C 344.535,575.800 341.965,574.682 337.203,571.630 C 323.397,562.781 307.289,556.009 295.349,554.035 C 291.416,553.385 283.429,552.886 267,553 C 267.260,552.505 267.521,552.011 267.781,551.516 C 268.211,550.700 270.971,549.575 273.917,549.016 C 295.964,544.835 323.178,554.267 346,574 Z" fill="#6D3817" stroke="none" />
</svg>
